<svg viewBox="0 0 24 24" xmlns="http://www.w3.org/2000/svg">
  <path d="M12 2a10 10 0 0 0-3.16 19.49c.5.09.68-.22.68-.48 0-.24-.01-.87-.01-1.71-2.77.6-3.36-1.34-3.36-1.34-.45-1.14-1.1-1.45-1.1-1.45-.9-.62.07-.61.07-.61 1 .07 1.53 1.04 1.53 1.04.89 1.52 2.34 1.08 2.91.83.09-.65.35-1.08.64-1.33-2.21-.25-4.53-1.1-4.53-4.9 0-1.08.39-1.97 1.03-2.67-.1-.25-.45-1.26.1-2.62 0 0 .84-.27 2.75 1.02A9.55 9.55 0 0 1 12 6.8c.85.004 1.71.12 2.51.35 1.9-1.29 2.74-1.02 2.74-1.02.55 1.36.2 2.37.1 2.62.64.7 1.03 1.59 1.03 2.67 0 3.8-2.32 4.64-4.53 4.89.36.31.68.92.68 1.85 0 1.33-.01 2.4-.01 2.73 0 .26.18.58.69.48A10 10 0 0 0 12 2z" fill="#ffffff"/>
</svg>
